<?xml version="1.0" encoding="UTF-8" standalone="no"?><!-- Generator: Gravit.io --><svg xmlns="http://www.w3.org/2000/svg" xmlns:xlink="http://www.w3.org/1999/xlink" style="isolation:isolate" viewBox="0 0 721 432" width="721pt" height="432pt"><defs><clipPath id="_clipPath_LvS1N3ZEFdFMov6FkIpTene3B9DVqNKv"><rect width="721" height="432"/></clipPath></defs><g clip-path="url(#_clipPath_LvS1N3ZEFdFMov6FkIpTene3B9DVqNKv)"><g><path d=" M 155.399 114.374 C 135.171 109.112 113.911 109.294 93.777 114.9 C 44.091 128.555 9.579 173.626 9.354 225.153 C 9.354 288.442 61.386 339.728 125.663 339.728 C 189.94 339.728 241.972 288.42 241.972 225.153 C 241.701 172.823 206.112 127.283 155.399 114.374 L 155.399 114.374 Z  M 157.023 267.463 C 138.698 280.641 114.102 281 95.401 268.363 C 81.175 258.81 72.567 242.864 72.387 225.73 C 72.207 208.595 80.479 192.472 94.501 182.623 C 112.923 169.572 137.535 169.414 156.123 182.228 C 170.138 191.812 178.593 207.633 178.772 224.611 C 178.951 241.589 170.832 257.585 157.023 267.463 L 157.023 267.463 Z " fill="rgb(0,104,55)"/></g><path d=" M 247.889 114.337 L 247.889 332.13 L 310.116 332.13 L 310.116 207.677 L 380.121 332.13 L 442.347 332.13 L 442.347 114.337 L 380.121 114.337 L 380.121 225.827 L 310.116 114.337 L 247.889 114.337 Z " fill="rgb(0,104,55)"/><path d=" M 448.829 114.337 L 448.829 332.13 L 511.056 332.13 L 511.056 207.677 L 581.061 332.13 L 643.287 332.13 L 643.287 114.337 L 581.061 114.337 L 581.061 225.827 L 511.056 114.337 L 448.829 114.337 Z " fill="rgb(0,104,55)"/><rect x="649.769" y="114.337" width="62.227" height="217.793" transform="matrix(1,0,0,1,0,0)" fill="rgb(0,104,55)"/><rect x="649.769" y="56" width="62.227" height="51.855" transform="matrix(1,0,0,1,0,0)" fill="rgb(0,104,55)"/></g></svg>